<svg xmlns="http://www.w3.org/2000/svg" xmlns:xlink="http://www.w3.org/1999/xlink" version="1.2" preserveAspectRatio="none" viewBox="0 0 553.174 237.317" class="ng-element" data-id="eac3027eb77948cd8fd1b584abed2482" style="opacity: 1; mix-blend-mode: normal; overflow: visible;"><style type="text/css">
	.st0_1527065708808{fill:#E20613;}
	.st1_1527065708808{fill:#ECECEC;}
	.st2_1527065708808{fill:#1D1D1B;}
	.st3_1527065708808{fill:#FFFFFF;}
</style><polygon class="st0_1527065708808" points="541.011,0 0,15.235 13.47,174.508 517.96,195.283 " vector-effect="non-scaling-stroke"></polygon><polygon class="st1_1527065708808" points="546.551,134.343 127.593,134.343 127.593,205.511 553.174,209.688 " vector-effect="non-scaling-stroke"></polygon><polygon class="st2_1527065708808" points="435.239,134.343 10.049,134.343 10.049,224.882 417.234,237.317 " vector-effect="non-scaling-stroke"></polygon><g>
	<path class="st3_1527065708808" d="M37.383,36.761c13.05-1.039,24.95-1.733,35.463-1.733c55.444,0,77.967,19.868,77.967,46.205
		s-22.524,46.205-77.967,46.205c-10.513,0-22.413-0.694-35.463-1.733V36.761z M121.936,81.233c0-15.592-18.135-22.524-45.627-22.524
		c-3.811,0-7.625,0.116-11.204,0.346v44.356c3.579,0.232,7.393,0.348,11.204,0.348C103.801,103.759,121.936,96.828,121.936,81.233z" vector-effect="non-scaling-stroke"></path>
	<path class="st3_1527065708808" d="M186.688,37.916v40.891c0,15.25,10.629,24.375,27.028,24.375c16.405,0,27.031-9.125,27.031-24.375V37.916
		h27.722v44.356c0,30.38-24.488,45.166-54.753,45.166c-30.262,0-54.753-14.785-54.753-45.166V37.916H186.688z" vector-effect="non-scaling-stroke"></path>
	<path class="st3_1527065708808" d="M326.603,101.449h52.672v23.101H271.734l56.024-63.53h-51.403V37.916h106.27L326.603,101.449z" vector-effect="non-scaling-stroke"></path>
	<path class="st3_1527065708808" d="M417.137,61.02v9.816h53.598V91.63h-53.598v9.819h67.112v23.101h-94.834V37.916h94.95V61.02H417.137z" vector-effect="non-scaling-stroke"></path>
</g><g>
	<path class="st3_1527065708808" d="M345.07,20.087v36.599h-35.141V20.087H345.07z" vector-effect="non-scaling-stroke"></path>
</g><g>
	<path class="st3_1527065708808" d="M38.464,159.066c6.884-0.488,15.228-0.915,23.755-0.915c25.153,0,33.013,8.041,33.013,16.75
		c0,5.786-3.595,10.964-11.146,14.253l10.17,10.355l-11.024,8.284l-14.068-15.289c-1.828,0.121-3.777,0.182-5.786,0.182
		c-3.595,0-7.126-0.121-10.294-0.303v12.973H38.464V159.066z M53.084,180.566c2.68,0.121,5.847,0.243,9.381,0.243
		c13.459,0,17.539-2.498,17.539-5.117c0-2.619-4.08-5.053-17.539-5.053c-3.534,0-6.702,0.121-9.381,0.243V180.566z" vector-effect="non-scaling-stroke"></path>
	<path class="st3_1527065708808" d="M146.533,198.899h-32.646l-6.702,8.893l-10.84-7.981l33.864-43.486l33.864,43.486l-10.84,7.981
		L146.533,198.899z M137.824,187.326l-7.614-10.049l-7.612,10.049H137.824z" vector-effect="non-scaling-stroke"></path>
	<path class="st3_1527065708808" d="M167.179,159.066c6.881-0.488,15.835-0.915,22.415-0.915c24.728,0,31.488,6.092,31.488,13.889
		c0,5.359-3.228,8.466-7.978,10.231c5.42,1.706,9.194,4.813,9.194,10.415c0,8.102-7.976,14.192-32.704,14.192
		c-6.58,0-15.534-0.425-22.415-0.913V159.066z M181.798,177.277c2.558,0.061,5.541,0.061,9.194,0.061
		c12.364,0,15.471-1.218,15.471-3.41c0-2.376-3.713-3.898-15.471-3.898c-3.532,0-6.636,0.121-9.194,0.303V177.277z M181.798,194.697
		c2.558,0.182,5.663,0.303,9.194,0.303c12.976,0,16.69-1.522,16.69-3.898c0-2.192-3.107-3.41-16.69-3.41
		c-3.653,0-6.636,0-9.194,0.061V194.697z" vector-effect="non-scaling-stroke"></path>
	<path class="st3_1527065708808" d="M273.132,198.899h-32.646l-6.699,8.893l-10.84-7.981l33.864-43.486l33.865,43.486l-10.842,7.981
		L273.132,198.899z M264.423,187.326l-7.612-10.049l-7.614,10.049H264.423z" vector-effect="non-scaling-stroke"></path>
	<path class="st3_1527065708808" d="M340.502,171.855h-21.194v33.501h-15.104v-33.501h-21.197v-12.18h57.496V171.855z" vector-effect="non-scaling-stroke"></path>
	<path class="st3_1527065708808" d="M381.854,188.911v16.444h-14.619v-16.444l-25.277-21.258l9.078-10.415l23.51,20.648l23.51-20.648l9.075,10.415
		L381.854,188.911z" vector-effect="non-scaling-stroke"></path>
</g><g>
	<path class="st2_1527065708808" d="M450.569,157.006c4.848-0.385,11.154-0.644,15.785-0.644c18.404,0,24.196,5.879,24.196,12.654
		c0,7.208-6.649,12.314-22.437,12.314c-2.529,0-5.019-0.087-7.25-0.216v8.495h-10.294V157.006z M460.863,172.58
		c1.888,0.084,4.12,0.171,6.607,0.171c9.482,0,12.356-1.975,12.356-3.819c0-1.844-2.875-3.774-12.356-3.774
		c-2.487,0-4.718,0.084-6.607,0.171V172.58z" vector-effect="non-scaling-stroke"></path>
	<path class="st2_1527065708808" d="M528.094,181.03v8.58h-34.36v-32.174h10.294v23.594H528.094z" vector-effect="non-scaling-stroke"></path>
</g></svg>