<svg xmlns="http://www.w3.org/2000/svg" xmlns:xlink="http://www.w3.org/1999/xlink" version="1.2" preserveAspectRatio="none" viewBox="0 0 24 24" class="ng-element" data-id="9d4b4c88756249d29cade699761ed2ed" style="opacity: 1; mix-blend-mode: normal; fill: rgb(227, 6, 19);"><g><path xmlns:default="http://www.w3.org/2000/svg" d="M15.5 14h-.79l-.28-.27C15.41 12.59 16 11.11 16 9.5 16 5.91 13.09 3 9.5 3S3 5.91 3 9.5 5.91 16 9.5 16c1.61 0 3.09-.59 4.23-1.57l.27.28v.79l5 4.99L20.49 19l-4.99-5zm-6 0C7.01 14 5 11.99 5 9.5S7.01 5 9.5 5 14 7.01 14 9.5 11.99 14 9.5 14z" style="fill: rgb(227, 6, 19);"></path></g></svg>