<svg xmlns="http://www.w3.org/2000/svg" xmlns:xlink="http://www.w3.org/1999/xlink" version="1.2" preserveAspectRatio="none" viewBox="0 0 960 960" class="ng-element" data-id="06154d0d658d48a399c834e90e3784c6" style="opacity: 1; mix-blend-mode: normal; overflow: visible;"><g><g><g><path fill="#272727" d="M479.992,451.625l212.094-212.078C631.445,186,555.602,158.938,479.57,159.094     c-4.219,74.438-32.703,147.563-85.313,206.781L479.992,451.625z" vector-effect="non-scaling-stroke" style="fill: rgb(74, 74, 74);"></path><path fill="#272727" d="M365.867,394.266c-59.219,52.625-132.359,81.078-206.766,85.313     c-0.156,76.031,26.891,151.875,80.422,212.516l212.094-212.078L365.867,394.266z" vector-effect="non-scaling-stroke" style="fill: rgb(74, 74, 74);"></path></g><g><path fill="#272727" d="M720.461,692.078c43.828-49.672,69.656-109.578,77.547-171.422     c-63.141,4.688-124.984,29.188-175.547,73.422L720.461,692.078z" vector-effect="non-scaling-stroke" style="fill: rgb(74, 74, 74);"></path><path fill="#272727" d="M594.086,622.469c-44.25,50.563-68.734,112.391-73.422,175.531     c61.828-7.875,121.734-33.703,171.406-77.531L594.086,622.469z" vector-effect="non-scaling-stroke" style="fill: rgb(74, 74, 74);"></path></g><g><path fill="#272727" d="M479.992,508.375L267.898,720.453c60.656,53.547,136.5,80.609,212.5,80.453     c4.25-74.438,32.719-147.563,85.344-206.781L479.992,508.375z" vector-effect="non-scaling-stroke" style="fill: rgb(74, 74, 74);"></path><path fill="#272727" d="M594.117,565.734c59.219-52.625,132.359-81.078,206.781-85.328c0.156-76.016-26.906-151.859-80.438-212.5     L508.367,479.984L594.117,565.734z" vector-effect="non-scaling-stroke" style="fill: rgb(74, 74, 74);"></path></g><g><path fill="#272727" d="M239.523,267.922c-43.828,49.672-69.641,109.578-77.531,171.422     c63.141-4.688,124.969-29.188,175.547-73.422L239.523,267.922z" vector-effect="non-scaling-stroke" style="fill: rgb(74, 74, 74);"></path><path fill="#272727" d="M365.914,337.531c44.234-50.563,68.734-112.391,73.422-175.531     c-61.844,7.875-121.75,33.703-171.406,77.531L365.914,337.531z" vector-effect="non-scaling-stroke" style="fill: rgb(74, 74, 74);"></path></g></g></g></svg>